REM DIRINDEX 1\2\5,1\2\6,1\2\7,1\2\8,1\3\9,1\3\10,1\3\11,1\4\12,1\4\13,1\4\14,1\4\15,1\4\16
REM DIRNAME folder01,folder02,folder03,folder04,folder05,folder06,folder07,folder08,folder09,folder10,folder11,folder12,folder13,folder14,folder15,folder16
TITLE ""
FILE "1200_2_sec02_0323_0337.mp3" MP3
  TRACK 01 AUDIO
    TITLE "0:"
    INDEX 01 00:00:00
  TRACK 02 AUDIO
    TITLE "10:cjc034_00663"
    INDEX 01 00:00:15
  TRACK 03 AUDIO
    TITLE "0:"
    INDEX 01 00:01:32
  TRACK 04 AUDIO
    TITLE "9:cjc034_00664"
    INDEX 01 00:01:38
  TRACK 05 AUDIO
    TITLE "0:"
    INDEX 01 00:02:40
  TRACK 06 AUDIO
    TITLE "10:cjc034_00665"
    INDEX 01 00:03:25
  TRACK 07 AUDIO
    TITLE "0:"
    INDEX 01 00:05:28
  TRACK 08 AUDIO
    TITLE "9:cjc034_00666"
    INDEX 01 00:05:32
  TRACK 09 AUDIO
    TITLE "0:"
    INDEX 01 00:06:39
  TRACK 10 AUDIO
    TITLE "10:cjc034_00667"
    INDEX 01 00:07:23
  TRACK 11 AUDIO
    TITLE "0:"
    INDEX 01 00:08:36
  TRACK 12 AUDIO
    TITLE "9:cjc034_00668"
    INDEX 01 00:08:40
  TRACK 13 AUDIO
    TITLE "0:"
    INDEX 01 00:09:69
  TRACK 14 AUDIO
    TITLE "10:cjc034_00669"
    INDEX 01 00:10:51
  TRACK 15 AUDIO
    TITLE "0:"
    INDEX 01 00:11:50
  TRACK 16 AUDIO
    TITLE "9:cjc034_00670"
    INDEX 01 00:11:56
  TRACK 17 AUDIO
    TITLE "0:"
    INDEX 01 00:13:10
  TRACK 18 AUDIO
    TITLE "10:cjc034_00671"
    INDEX 01 00:13:67
  TRACK 19 AUDIO
    TITLE "0:"
    INDEX 01 00:16:20
  TRACK 20 AUDIO
    TITLE "9:cjc034_00672"
    INDEX 01 00:16:24
  TRACK 21 AUDIO
    TITLE "0:"
    INDEX 01 00:17:31
  TRACK 22 AUDIO
    TITLE "10:cjc034_00673"
    INDEX 01 00:18:11
  TRACK 23 AUDIO
    TITLE "0:"
    INDEX 01 00:18:74
  TRACK 24 AUDIO
    TITLE "9:cjc034_00674"
    INDEX 01 00:19:05
  TRACK 25 AUDIO
    TITLE "0:"
    INDEX 01 00:20:10
  TRACK 26 AUDIO
    TITLE "10:cjc034_00675"
    INDEX 01 00:20:67
  TRACK 27 AUDIO
    TITLE "0:"
    INDEX 01 00:21:58
  TRACK 28 AUDIO
    TITLE "9:cjc034_00676"
    INDEX 01 00:21:60
  TRACK 29 AUDIO
    TITLE "0:"
    INDEX 01 00:23:06
  TRACK 30 AUDIO
    TITLE "10:cjc034_00677"
    INDEX 01 00:23:61
  TRACK 31 AUDIO
    TITLE "0:"
    INDEX 01 00:25:58
  TRACK 32 AUDIO
    TITLE "9:cjc034_00678"
    INDEX 01 00:25:60
  TRACK 33 AUDIO
    TITLE "0:"
    INDEX 01 00:26:71
  TRACK 34 AUDIO
    TITLE "10:cjc034_00679"
    INDEX 01 00:27:55
  TRACK 35 AUDIO
    TITLE "0:"
    INDEX 01 00:29:40
  TRACK 36 AUDIO
    TITLE "9:cjc034_00680"
    INDEX 01 00:29:42
  TRACK 37 AUDIO
    TITLE "0:"
    INDEX 01 00:30:57
  TRACK 38 AUDIO
    TITLE "10:cjc034_00681"
    INDEX 01 00:31:37
  TRACK 39 AUDIO
    TITLE "0:"
    INDEX 01 00:33:24
  TRACK 40 AUDIO
    TITLE "9:cjc034_00682"
    INDEX 01 00:33:30
  TRACK 41 AUDIO
    TITLE "0:"
    INDEX 01 00:34:32
  TRACK 42 AUDIO
    TITLE "10:cjc034_00683"
    INDEX 01 00:35:17
  TRACK 43 AUDIO
    TITLE "0:"
    INDEX 01 00:36:03
  TRACK 44 AUDIO
    TITLE "9:cjc034_00684"
    INDEX 01 00:36:11
  TRACK 45 AUDIO
    TITLE "0:"
    INDEX 01 00:37:18
  TRACK 46 AUDIO
    TITLE "11:cjc034_00685"
    INDEX 01 00:38:65
  TRACK 47 AUDIO
    TITLE "0:"
    INDEX 01 00:40:58
  TRACK 48 AUDIO
    TITLE "10:cjc034_00686"
    INDEX 01 00:41:55
  TRACK 49 AUDIO
    TITLE "0:"
    INDEX 01 00:43:09
  TRACK 50 AUDIO
    TITLE "9:cjc034_00687"
    INDEX 01 00:43:11
  TRACK 51 AUDIO
    TITLE "0:"
    INDEX 01 00:44:28
  TRACK 52 AUDIO
    TITLE "10:cjc034_00688"
    INDEX 01 00:45:08
  TRACK 53 AUDIO
    TITLE "0:"
    INDEX 01 00:46:25
  TRACK 54 AUDIO
    TITLE "9:cjc034_00689"
    INDEX 01 00:46:31
  TRACK 55 AUDIO
    TITLE "0:"
    INDEX 01 00:47:46
  TRACK 56 AUDIO
    TITLE "10:cjc034_00690"
    INDEX 01 00:48:26
  TRACK 57 AUDIO
    TITLE "0:"
    INDEX 01 00:49:37
  TRACK 58 AUDIO
    TITLE "9:cjc034_00691"
    INDEX 01 00:49:43
  TRACK 59 AUDIO
    TITLE "0:"
    INDEX 01 00:50:37
  TRACK 60 AUDIO
    TITLE "10:cjc034_00692"
    INDEX 01 00:51:22
  TRACK 61 AUDIO
    TITLE "0:"
    INDEX 01 00:52:61
  TRACK 62 AUDIO
    TITLE "9:cjc034_00693"
    INDEX 01 00:52:69
  TRACK 63 AUDIO
    TITLE "0:"
    INDEX 01 00:54:13
